<?xml version="1.0" encoding="UTF-8" standalone="no"?>
<svg
   xmlns:dc="http://purl.org/dc/elements/1.1/"
   xmlns:cc="http://creativecommons.org/ns#"
   xmlns:rdf="http://www.w3.org/1999/02/22-rdf-syntax-ns#"
   xmlns:svg="http://www.w3.org/2000/svg"
   xmlns="http://www.w3.org/2000/svg"
   xmlns:xlink="http://www.w3.org/1999/xlink"
   xmlns:sodipodi="http://sodipodi.sourceforge.net/DTD/sodipodi-0.dtd"
   xmlns:inkscape="http://www.inkscape.org/namespaces/inkscape"
   width="375"
   height="423"
   version="1.1"
   id="svg86"
   sodipodi:docname="bg-intro-mobile.svg"
   inkscape:version="0.92.5 (2060ec1f9f, 2020-04-08)">
  <metadata
     id="metadata90">
    <rdf:RDF>
      <cc:Work
         rdf:about="">
        <dc:format>image/svg+xml</dc:format>
        <dc:type
           rdf:resource="http://purl.org/dc/dcmitype/StillImage" />
        <dc:title></dc:title>
      </cc:Work>
    </rdf:RDF>
  </metadata>
  <sodipodi:namedview
     pagecolor="#ffffff"
     bordercolor="#666666"
     borderopacity="1"
     objecttolerance="10"
     gridtolerance="10"
     guidetolerance="10"
     inkscape:pageopacity="0"
     inkscape:pageshadow="2"
     inkscape:window-width="1440"
     inkscape:window-height="848"
     id="namedview88"
     showgrid="false"
     inkscape:zoom="0.75768322"
     inkscape:cx="294.69138"
     inkscape:cy="293.35319"
     inkscape:window-x="0"
     inkscape:window-y="28"
     inkscape:window-maximized="1"
     inkscape:current-layer="g84" />
  <defs
     id="defs76">
    <linearGradient
       id="c"
       x1="249.175"
       x2="897.585"
       y1="199.5"
       y2="199.5"
       gradientUnits="userSpaceOnUse">
      <stop
         offset="0%"
         stop-color="#33D35E"
         id="stop63"
         style="stop-color:#ffac47;stop-opacity:1" />
      <stop
         offset="100%"
         stop-color="#2AB6D9"
         id="stop65"
         style="stop-color:#ff424f;stop-opacity:1" />
    </linearGradient>
    <filter
       id="a"
       width="116.9%"
       height="158.7%"
       x="-10.8%"
       y="-28.8%"
       filterUnits="objectBoundingBox">
      <feOffset
         dy="2"
         in="SourceAlpha"
         result="shadowOffsetOuter1"
         id="feOffset68" />
      <feGaussianBlur
         in="shadowOffsetOuter1"
         result="shadowBlurOuter1"
         stdDeviation="38.5"
         id="feGaussianBlur70" />
      <feColorMatrix
         in="shadowBlurOuter1"
         values="0 0 0 0 0 0 0 0 0 0 0 0 0 0 0 0 0 0 0.0240111451 0"
         id="feColorMatrix72" />
    </filter>
    <path
       id="b"
       d="M42.46 162.61l70.744 70.76a100 100 0 0070.719 29.298h11.03a100 100 0 0170.719 29.298l75.718 75.736A100 100 0 00412.109 397H633.78c27.507 0 49.805-22.299 49.805-49.805a49.805 49.805 0 00-14.583-35.213l-52.835-52.848c-7.359-7.36-7.357-19.294.003-26.653a18.846 18.846 0 0113.325-5.518c10.408 0 18.846-8.438 18.846-18.846 0-4.997-1.985-9.79-5.518-13.325L534.747 86.691a100 100 0 00-70.72-29.298H352.013a97.948 97.948 0 01-69.267-28.696A97.948 97.948 0 00213.477 0H84.94c-19.435 0-35.19 15.755-35.19 35.19a35.19 35.19 0 0010.304 24.88L77.65 77.669c9.715 9.717 9.713 25.47-.004 35.185a24.88 24.88 0 01-17.59 7.285c-13.742 0-24.88 11.14-24.88 24.88a24.88 24.88 0 007.284 17.59z" />
  </defs>
  <g
     fill="none"
     fill-rule="evenodd"
     transform="translate(-94 -52)"
     id="g84">
    <use
       fill="#000"
       filter="url(#a)"
       xlink:href="#b"
       id="use78" />
    <use
       fill="#2D314D"
       xlink:href="#b"
       id="use80" />
    <path
       fill="url(#c)"
       d="M256.46 163.61l70.744 70.76a100 100 0 0070.719 29.298h11.03a100 100 0 0170.719 29.298l75.718 75.736A100 100 0 00626.109 398H847.78c27.507 0 49.805-22.299 49.805-49.805a49.805 49.805 0 00-14.583-35.213l-52.835-52.848c-7.359-7.36-7.357-19.294.003-26.653a18.846 18.846 0 0113.325-5.518c10.408 0 18.846-8.438 18.846-18.846 0-4.997-1.985-9.79-5.518-13.325L748.747 87.691a100 100 0 00-70.72-29.298H566.013a97.948 97.948 0 01-69.267-28.696A97.948 97.948 0 00427.477 1H298.94c-19.435 0-35.19 15.755-35.19 35.19a35.19 35.19 0 0010.304 24.88l17.595 17.599c9.715 9.717 9.713 25.47-.004 35.185a24.88 24.88 0 01-17.59 7.285c-13.742 0-24.88 11.14-24.88 24.88a24.88 24.88 0 007.284 17.59z"
       id="path82" />
  </g>
</svg>
