<?xml version="1.0" encoding="UTF-8" standalone="no"?>
<svg
   xmlns:dc="http://purl.org/dc/elements/1.1/"
   xmlns:cc="http://creativecommons.org/ns#"
   xmlns:rdf="http://www.w3.org/1999/02/22-rdf-syntax-ns#"
   xmlns:svg="http://www.w3.org/2000/svg"
   xmlns="http://www.w3.org/2000/svg"
   xmlns:xlink="http://www.w3.org/1999/xlink"
   xmlns:sodipodi="http://sodipodi.sourceforge.net/DTD/sodipodi-0.dtd"
   xmlns:inkscape="http://www.inkscape.org/namespaces/inkscape"
   width="1271"
   height="1034"
   version="1.1"
   id="svg4830"
   sodipodi:docname="bg-intro-desktop.svg"
   inkscape:version="0.92.5 (2060ec1f9f, 2020-04-08)">
  <metadata
     id="metadata4834">
    <rdf:RDF>
      <cc:Work
         rdf:about="">
        <dc:format>image/svg+xml</dc:format>
        <dc:type
           rdf:resource="http://purl.org/dc/dcmitype/StillImage" />
        <dc:title></dc:title>
      </cc:Work>
    </rdf:RDF>
  </metadata>
  <sodipodi:namedview
     pagecolor="#ffffff"
     bordercolor="#666666"
     borderopacity="1"
     objecttolerance="10"
     gridtolerance="10"
     guidetolerance="10"
     inkscape:pageopacity="0"
     inkscape:pageshadow="2"
     inkscape:window-width="1440"
     inkscape:window-height="848"
     id="namedview4832"
     showgrid="false"
     inkscape:zoom="0.30996132"
     inkscape:cx="1075.187"
     inkscape:cy="417.37601"
     inkscape:window-x="0"
     inkscape:window-y="28"
     inkscape:window-maximized="1"
     inkscape:current-layer="svg4830" />
  <defs
     id="defs4820">
    <linearGradient
       id="c"
       x1="0%"
       x2="99.58%"
       y1="36.147%"
       y2="63.736%">
      <stop
         offset="0%"
         stop-color="#33D35E"
         id="stop4807"
         style="stop-color:#ffac47;stop-opacity:1" />
      <stop
         offset="100%"
         stop-color="#2AB6D9"
         id="stop4809"
         style="stop-color:#ff643f;stop-opacity:1" />
    </linearGradient>
    <filter
       id="a"
       width="104.9%"
       height="135.9%"
       x="-4.8%"
       y="-17.6%"
       filterUnits="objectBoundingBox">
      <feOffset
         dy="2"
         in="SourceAlpha"
         result="shadowOffsetOuter1"
         id="feOffset4812" />
      <feGaussianBlur
         in="shadowOffsetOuter1"
         result="shadowBlurOuter1"
         stdDeviation="38.5"
         id="feGaussianBlur4814" />
      <feColorMatrix
         in="shadowBlurOuter1"
         values="0 0 0 0 0 0 0 0 0 0 0 0 0 0 0 0 0 0 0.0240111451 0"
         id="feColorMatrix4816" />
    </filter>
    <path
       id="b"
       d="M69.445 572.84L203.73 707.112a100 100 0 0070.708 29.286h70.693a100 100 0 0170.708 29.287l161.04 161.027A100 100 0 00647.584 956h388.853c44.964 0 81.415-36.45 81.415-81.414a81.414 81.414 0 00-23.848-57.57l-86.392-86.386c-12.033-12.032-12.034-31.54-.002-43.574a30.812 30.812 0 0121.788-9.025c17.017 0 30.812-13.795 30.812-30.812 0-8.172-3.246-16.01-9.025-21.788L855.85 430.11a100 100 0 00-70.708-29.287H550.7a100 100 0 01-70.708-29.287l-35.253-35.25A100 100 0 00374.032 307H138.88c-31.769 0-57.523 25.754-57.523 57.523a57.523 57.523 0 0016.85 40.676l28.761 28.76c15.886 15.884 15.887 41.64.003 57.525a40.676 40.676 0 01-28.764 11.915c-22.465 0-40.677 18.211-40.677 40.676a40.676 40.676 0 0011.915 28.764z" />
  </defs>
  <g
     fill="none"
     fill-rule="evenodd"
     transform="translate(15)"
     id="g4828">
    <use
       fill="#000"
       filter="url(#a)"
       xlink:href="#b"
       id="use4822" />
    <use
       fill="#2D314D"
       xlink:href="#b"
       id="use4824" />
    <path
       fill="url(#c)"
       d="M207.445 265.84L341.73 400.112a100 100 0 0070.708 29.286h70.693a100 100 0 0170.708 29.287l161.04 161.027A100 100 0 00785.584 649h388.853c44.964 0 81.415-36.45 81.415-81.414a81.414 81.414 0 00-23.848-57.57l-86.392-86.386c-12.033-12.032-12.034-31.54-.002-43.574a30.812 30.812 0 0121.788-9.025c17.017 0 30.812-13.795 30.812-30.812 0-8.172-3.246-16.01-9.025-21.788L993.85 123.11a100 100 0 00-70.708-29.287H688.7a100 100 0 01-70.708-29.287l-35.253-35.25A100 100 0 00512.032 0H276.88c-31.769 0-57.523 25.754-57.523 57.523a57.523 57.523 0 0016.85 40.676l28.761 28.76c15.886 15.884 15.887 41.64.003 57.525a40.676 40.676 0 01-28.764 11.915c-22.465 0-40.677 18.211-40.677 40.676a40.676 40.676 0 0011.915 28.764z"
       id="path4826" />
  </g>
</svg>
